<svg width="171" height="20" viewBox="0 0 171 20" fill="none" xmlns="http://www.w3.org/2000/svg">
<path d="M162.964 20C167.661 20 170.583 16.5392 170.583 12.0742C170.583 10.3908 170.309 8.87083 168.398 8.41417C168.863 7.14083 170.205 3.4575 170.205 2.2775C170.205 1.23833 169.58 0.3675 168.466 0.3675C166.69 0.3675 165.098 5.51167 164.6 6.73833C164.214 5.625 162.407 0 160.815 0C159.577 0 158.997 0.894167 158.997 2.01917C158.997 3.39833 160.357 6.9725 160.851 8.3475C160.601 8.2575 160.33 8.17917 160.054 8.17917C159.122 8.17917 158.132 9.31583 158.132 10.2342C158.132 10.5817 158.327 11.07 158.45 11.3942C156.982 11.785 156.417 12.7458 156.417 14.195C156.412 17.015 159.136 20 162.964 20ZM166.989 4.21917C167.149 3.73833 167.829 1.7075 168.466 1.7075C168.808 1.7075 168.9 2.055 168.9 2.3325C168.9 3.07833 167.364 7.2 167.025 8.11333L165.672 7.87917L166.989 4.21917ZM160.247 1.8875V1.88667C160.247 1.42167 160.824 0.101667 162.089 3.72667L163.467 7.645C162.846 7.59417 162.364 7.5275 162.058 7.7C161.624 6.575 160.247 3.02417 160.247 1.8875ZM160.155 9.53083L160.156 9.53167C161.322 9.53167 162.827 13.2267 162.827 13.7267C162.827 13.9258 162.632 14.1717 162.405 14.1717C161.572 14.1717 159.343 11.1675 159.343 10.355C159.347 10.0542 159.848 9.53083 160.155 9.53083ZM158.815 12.5892C159.268 12.5892 160.976 14.945 160.976 15.445C160.976 15.6367 160.669 15.7692 160.511 15.7692C159.87 15.7692 159.619 15.1633 158.477 13.7617C157.295 14.9217 159.293 17.1558 160.798 17.1558C161.837 17.1558 162.513 16.2108 162.311 15.515C162.458 15.515 162.641 15.5267 162.777 15.4917C162.821 16.55 163.139 17.8117 164.437 17.9017C164.437 17.8667 164.517 17.6242 164.517 17.6125C164.517 16.9325 164.095 16.3392 164.095 15.6475C164.095 14.5417 164.958 13.4717 165.834 12.8467C166.152 12.6125 166.539 12.4675 166.912 12.335C167.299 12.1908 167.709 12.0225 168.002 11.7333C167.958 11.2958 167.776 10.9092 167.33 10.9092C166.227 10.9092 162.53 11.0658 162.53 9.35833C162.53 9.09667 162.534 8.84667 163.223 8.84667C164.509 8.84667 167.773 9.15917 168.728 9.98333C169.448 10.6125 169.696 14.405 167.494 16.8075L167.492 16.8083C166.333 18.0583 164.852 18.7067 163.125 18.7067C160.761 18.7067 158.893 17.4333 157.994 15.2575C157.313 13.5625 158.146 12.5892 158.815 12.5892ZM163.566 11.8858C163.953 12.0075 164.351 12.0433 164.749 12.1208C164.454 12.3317 164.192 12.59 163.941 12.8667C163.829 12.535 163.693 12.2108 163.566 11.8858Z" fill="#505F79"/>
<path d="M97.8208 3.88042L99.4167 2.33768V2H93.8883L89.9483 11.9099L85.4658 2H79.6692V2.33768L81.5333 4.60547C81.715 4.77305 81.81 5.01811 81.7858 5.26484V14.1768C81.8433 14.4977 81.74 14.8278 81.5167 15.0611L79.4167 17.6328V17.9663H85.3708V17.6286L83.2708 15.0611C83.0433 14.8269 82.9358 14.5027 82.9817 14.1768V6.46821L88.2083 17.9705H88.8158L93.31 6.46821V15.6312C93.31 15.8728 93.31 15.9225 93.1533 16.0808L91.5367 17.6615V18H99.38V17.6623L97.8217 16.1204C97.685 16.016 97.6142 15.8408 97.6433 15.6707V4.33011C97.6142 4.15916 97.6842 3.984 97.8208 3.88042Z" fill="#505F79"/>
<path d="M53.061 3.03418C49.5722 3.03418 46.7052 5.86177 46.7052 9.37901V19.31C46.7052 19.6894 47.0161 19.9997 47.3961 19.9997H50.9885C51.3684 19.9997 51.6793 19.6894 51.6793 19.31V9.65487C51.6793 8.89625 52.3011 8.27556 53.061 8.27556C53.8209 8.27556 54.4427 8.89625 54.4427 9.65487V19.31C54.4427 19.6894 54.7536 19.9997 55.1336 19.9997H58.726C59.1059 19.9997 59.4168 19.6894 59.4168 19.31V9.37901C59.4168 5.89625 56.5843 3.03418 53.061 3.03418Z" fill="#505F79"/>
<path d="M41.9037 0C40.522 0 39.4167 1.10345 39.4167 2.48276C39.4167 3.86207 40.522 4.96552 41.9037 4.96552C43.2854 4.96552 44.3908 3.86207 44.3908 2.48276C44.3908 1.10345 43.2854 0 41.9037 0Z" fill="#505F79"/>
<path d="M43.6999 6.27539H40.1075C39.7275 6.27539 39.4167 6.58574 39.4167 6.96505V19.3099C39.4167 19.6892 39.7275 19.9995 40.1075 19.9995H43.6999C44.0799 19.9995 44.3908 19.6892 44.3908 19.3099V6.96505C44.3908 6.58574 44.0799 6.27539 43.6999 6.27539Z" fill="#505F79"/>
<path d="M137.402 7.46114C137.402 6.32124 137.036 5.25043 136.337 4.31779C136.603 3.41969 136.67 2.27979 136.603 0.967185C136.57 0.414508 136.138 0 135.605 0C135.306 0 132.777 0.0345423 131.313 1.38169C130.049 1.1399 128.718 1.1399 127.42 1.38169C125.99 0.0345423 123.461 0 123.128 0C122.596 0 122.163 0.414508 122.13 0.967185C122.03 2.27979 122.13 3.41969 122.396 4.31779C121.698 5.28497 121.332 6.35579 121.332 7.46114C121.332 9.8791 123.128 12.0553 125.857 13.0915C125.757 13.2988 125.69 13.5406 125.624 13.7824C122.729 13.4715 121.365 10.7427 121.298 10.639C121.065 10.1209 120.467 9.91364 119.967 10.19C119.468 10.4318 119.269 11.0535 119.535 11.5717C119.601 11.7444 121.431 15.4404 125.457 15.8549V18.9637C125.457 19.5509 125.89 20 126.455 20H132.278C132.844 20 133.276 19.5509 133.276 18.9637V14.8532C133.276 14.2314 133.143 13.6442 132.91 13.1261C135.605 12.0553 137.402 9.91364 137.402 7.46114Z" fill="#505F79"/>
<path d="M20.1753 0.394423C19.842 -0.00424693 19.2753 -0.103914 18.842 0.195088L16.9086 1.52399C16.0086 0.560536 14.742 0.0289756 13.3753 0.0289756C10.6753 0.0289756 8.44198 2.22166 8.44198 4.94591C8.44198 5.34458 8.47532 5.71002 8.57532 6.07547C6.24198 5.57713 4.84198 3.88279 4.30865 0.826316C4.24198 0.427646 3.94198 0.128643 3.54198 0.0289756C3.17532 -0.070692 2.77532 0.0954206 2.54198 0.394423C2.47532 0.460868 -3.02468 8.10205 4.94198 14.5804C4.17532 16.2083 1.87532 17.6037 0.975315 18.0688C0.541982 18.2681 0.341982 18.7332 0.441982 19.1984C0.541982 19.6635 0.941982 19.9625 1.40865 19.9625H3.14198C13.2753 19.9625 17.8753 14.9459 17.9753 3.71667L20.0753 1.72332C20.4753 1.3911 20.5086 0.793093 20.1753 0.394423Z" fill="#505F79"/>
</svg>
